PathFileType	4	(X/Y/Z)	TVC_20_BWA2_walk_RCNL2025.trc
DataRate	CameraRate	NumFrames	NumMarkers	Units	OrigDataRate	OrigDataStartFrame	OrigNumFrames
100	100	4	27	mm	100	139	221
Frame#	Time	R_Shoulder			L_Shoulder			C7			J_Notch			R_Elbow			L_Elbow			R_Wrist			L_Wrist			R_Asis			L_Asis			R_Psis			L_Psis			Sacral			Thoracic			Sternum			R_Thigh_Lateral			R_Knee_Lateral			R_Shank_Lateral			R_Ankle_Lateral			R_Heel			R_Toe			L_Thigh_Lateral			L_Knee_Lateral			L_Shank_Lateral			L_Ankle_Lateral			L_Heel			L_Toe		
		X1	Y1	Z1	X2	Y2	Z2	X3	Y3	Z3	X4	Y4	Z4	X5	Y5	Z5	X6	Y6	Z6	X7	Y7	Z7	X8	Y8	Z8	X9	Y9	Z9	X10	Y10	Z10	X11	Y11	Z11	X12	Y12	Z12	X13	Y13	Z13	X14	Y14	Z14	X15	Y15	Z15	X16	Y16	Z16	X17	Y17	Z17	X18	Y18	Z18	X19	Y19	Z19	X20	Y20	Z20	X21	Y21	Z21	X22	Y22	Z22	X23	Y23	Z23	X24	Y24	Z24	X25	Y25	Z25	X26	Y26	Z26	X27	Y27	Z27
139	1.38000000	1151.171143	1397.937622	155.756134	1078.995239	1424.161865	-202.519974	1092.598511	1465.165161	-7.179883	1205.072266	1332.157959	-33.821453	1114.708984	1091.029053	265.075104	996.416321	1120.389404	-300.437897	1291.167847	901.218597	226.098152	1121.120911	889.506348	-311.468552	1161.375732	1007.872925	113.003738	1147.747803	1009.788391	-164.563950	1006.143555	1009.688477	26.332838	989.379639	995.599426	-63.469757	997.761597	1002.643951	-18.568460	976.898926	1235.722046	-13.341705	1215.916870	1190.781128	-45.902096	1127.846313	668.785889	170.605515	1114.224976	473.461273	84.549049	1056.239502	301.836517	140.234848	1011.266724	75.325279	54.567253	960.158813	56.603355	8.076230	1154.726318	31.399370	27.823669	1213.978394	659.861755	-245.240509	1286.334106	506.755493	-179.866714	1210.723267	340.494720	-233.090408	1103.967773	121.135078	-159.774765	1054.792603	125.200714	-118.582428	1220.979980	53.067055	-133.479416
140	1.39000000	1164.021484	1397.814697	155.106934	1092.317505	1423.014771	-203.230576	1105.634888	1464.454834	-8.042840	1217.963501	1331.264160	-34.145599	1129.082153	1091.302002	265.664825	1007.304138	1120.006348	-300.774719	1307.399475	903.964294	224.429054	1128.233032	887.123749	-312.379608	1173.141479	1006.553467	113.055038	1160.418701	1009.302551	-164.531189	1018.119812	1009.125732	25.983551	1001.641846	995.192932	-63.895638	1009.880829	1002.159332	-18.956043	989.503174	1235.247070	-13.717823	1228.561157	1189.759766	-45.638260	1133.932617	667.808777	170.124649	1115.163818	473.090515	83.857750	1055.861816	302.233337	139.597687	1010.957642	75.586945	53.737732	960.175049	56.775780	6.951324	1154.658325	31.414984	27.792557	1231.212769	661.329712	-245.496201	1303.500854	508.856049	-179.357147	1237.488525	338.349579	-233.815659	1145.515625	112.683708	-161.548401	1095.982056	113.485458	-120.240158	1266.893555	52.321289	-135.665039
141	1.40000000	1176.896484	1397.244141	154.413315	1105.660522	1421.480225	-203.977982	1118.684082	1463.354248	-8.924107	1230.871094	1329.933960	-34.509609	1143.442993	1091.163452	266.237549	1018.330078	1119.229858	-301.163147	1323.521484	906.312744	222.731438	1135.677490	884.528290	-313.232315	1184.841431	1004.884338	113.069641	1173.113770	1008.375671	-164.571289	1030.042725	1008.156250	25.542303	1013.888367	994.357666	-64.388809	1021.965546	1001.256958	-19.423253	1002.075989	1234.446411	-14.199683	1241.183472	1188.291870	-45.439034	1140.257202	666.646729	169.659317	1116.567871	472.600739	83.207077	1055.822144	302.522369	138.946091	1010.707886	75.831085	52.834362	960.199829	56.966721	5.740233	1154.578003	31.421789	27.728872	1247.632690	662.147400	-245.804810	1319.956543	510.342407	-178.975220	1263.724365	336.320038	-234.714981	1187.367188	105.177475	-163.436493	1137.686890	102.787544	-122.065170	1312.481812	52.490646	-137.780106
142	1.41000000	1189.790527	1396.246826	153.671967	1119.017944	1419.588989	-204.766251	1131.746704	1461.889648	-9.826324	1243.791748	1328.193726	-34.918030	1157.797363	1090.623657	266.771484	1029.487427	1118.075806	-301.584625	1339.537354	908.247375	221.015381	1143.467834	881.729523	-314.023758	1196.452026	1002.914978	113.062531	1185.863159	1007.025146	-164.672241	1041.914917	1006.799622	24.981821	1026.133911	993.103210	-64.978622	1034.024414	999.951416	-19.998401	1014.619812	1233.344971	-14.803700	1253.780518	1186.406372	-45.308624	1146.850708	665.320312	169.221298	1118.524536	471.992676	82.600296	1056.196289	302.704346	138.287140	1010.534729	76.066505	51.874329	960.240356	57.198620	4.467617	1154.489136	31.419258	27.633121	1263.175537	662.263672	-246.174622	1335.742432	511.213348	-178.729889	1289.355835	334.443787	-235.773071	1229.276367	98.712860	-165.404694	1179.648804	93.236542	-124.033211	1357.533691	53.600304	-139.792358
